<svg xmlns="http://www.w3.org/2000/svg" viewBox="0 0 240 180" role="img" aria-label="giraffe reference"><rect width="240" height="180" fill="#fff8e6"/><path d="M93 157 L101 78 C104 48 144 47 148 78 L158 157 Z" fill="#e7b558" stroke="#4b3420" stroke-width="5"/><ellipse cx="124" cy="58" rx="42" ry="27" fill="#e7b558" stroke="#4b3420" stroke-width="5"/><path d="M96 43 L86 21 M136 38 L141 16" stroke="#4b3420" stroke-width="5" stroke-linecap="round"/><circle cx="84" cy="18" r="6" fill="#7b4b28"/><circle cx="143" cy="14" r="6" fill="#7b4b28"/><circle cx="109" cy="56" r="5" fill="#111"/><circle cx="139" cy="56" r="5" fill="#111"/><path d="M126 70 Q122 77 116 70" fill="none" stroke="#4b3420" stroke-width="3"/><g fill="#8b572a"><circle cx="117" cy="91" r="8"/><circle cx="137" cy="112" r="7"/><circle cx="103" cy="128" r="6"/><circle cx="143" cy="145" r="8"/><circle cx="99" cy="52" r="6"/><circle cx="146" cy="66" r="5"/></g></svg>
