<svg xmlns="http://www.w3.org/2000/svg" width="320" height="240" viewBox="0 0 200 180" role="img" aria-label="visual mask">
  <rect x="0" y="0" width="20" height="20" fill="#202124"/><rect x="20" y="0" width="20" height="20" fill="#f1f3f4"/><rect x="40" y="0" width="20" height="20" fill="#9aa0a6"/><rect x="60" y="0" width="20" height="20" fill="#5f6368"/><rect x="80" y="0" width="20" height="20" fill="#202124"/><rect x="100" y="0" width="20" height="20" fill="#f1f3f4"/><rect x="120" y="0" width="20" height="20" fill="#9aa0a6"/><rect x="140" y="0" width="20" height="20" fill="#5f6368"/><rect x="160" y="0" width="20" height="20" fill="#202124"/><rect x="180" y="0" width="20" height="20" fill="#f1f3f4"/><rect x="0" y="20" width="20" height="20" fill="#f1f3f4"/><rect x="20" y="20" width="20" height="20" fill="#9aa0a6"/><rect x="40" y="20" width="20" height="20" fill="#5f6368"/><rect x="60" y="20" width="20" height="20" fill="#202124"/><rect x="80" y="20" width="20" height="20" fill="#f1f3f4"/><rect x="100" y="20" width="20" height="20" fill="#9aa0a6"/><rect x="120" y="20" width="20" height="20" fill="#5f6368"/><rect x="140" y="20" width="20" height="20" fill="#202124"/><rect x="160" y="20" width="20" height="20" fill="#f1f3f4"/><rect x="180" y="20" width="20" height="20" fill="#9aa0a6"/><rect x="0" y="40" width="20" height="20" fill="#9aa0a6"/><rect x="20" y="40" width="20" height="20" fill="#5f6368"/><rect x="40" y="40" width="20" height="20" fill="#202124"/><rect x="60" y="40" width="20" height="20" fill="#f1f3f4"/><rect x="80" y="40" width="20" height="20" fill="#9aa0a6"/><rect x="100" y="40" width="20" height="20" fill="#5f6368"/><rect x="120" y="40" width="20" height="20" fill="#202124"/><rect x="140" y="40" width="20" height="20" fill="#f1f3f4"/><rect x="160" y="40" width="20" height="20" fill="#9aa0a6"/><rect x="180" y="40" width="20" height="20" fill="#5f6368"/><rect x="0" y="60" width="20" height="20" fill="#5f6368"/><rect x="20" y="60" width="20" height="20" fill="#202124"/><rect x="40" y="60" width="20" height="20" fill="#f1f3f4"/><rect x="60" y="60" width="20" height="20" fill="#9aa0a6"/><rect x="80" y="60" width="20" height="20" fill="#5f6368"/><rect x="100" y="60" width="20" height="20" fill="#202124"/><rect x="120" y="60" width="20" height="20" fill="#f1f3f4"/><rect x="140" y="60" width="20" height="20" fill="#9aa0a6"/><rect x="160" y="60" width="20" height="20" fill="#5f6368"/><rect x="180" y="60" width="20" height="20" fill="#202124"/><rect x="0" y="80" width="20" height="20" fill="#202124"/><rect x="20" y="80" width="20" height="20" fill="#f1f3f4"/><rect x="40" y="80" width="20" height="20" fill="#9aa0a6"/><rect x="60" y="80" width="20" height="20" fill="#5f6368"/><rect x="80" y="80" width="20" height="20" fill="#202124"/><rect x="100" y="80" width="20" height="20" fill="#f1f3f4"/><rect x="120" y="80" width="20" height="20" fill="#9aa0a6"/><rect x="140" y="80" width="20" height="20" fill="#5f6368"/><rect x="160" y="80" width="20" height="20" fill="#202124"/><rect x="180" y="80" width="20" height="20" fill="#f1f3f4"/><rect x="0" y="100" width="20" height="20" fill="#f1f3f4"/><rect x="20" y="100" width="20" height="20" fill="#9aa0a6"/><rect x="40" y="100" width="20" height="20" fill="#5f6368"/><rect x="60" y="100" width="20" height="20" fill="#202124"/><rect x="80" y="100" width="20" height="20" fill="#f1f3f4"/><rect x="100" y="100" width="20" height="20" fill="#9aa0a6"/><rect x="120" y="100" width="20" height="20" fill="#5f6368"/><rect x="140" y="100" width="20" height="20" fill="#202124"/><rect x="160" y="100" width="20" height="20" fill="#f1f3f4"/><rect x="180" y="100" width="20" height="20" fill="#9aa0a6"/><rect x="0" y="120" width="20" height="20" fill="#9aa0a6"/><rect x="20" y="120" width="20" height="20" fill="#5f6368"/><rect x="40" y="120" width="20" height="20" fill="#202124"/><rect x="60" y="120" width="20" height="20" fill="#f1f3f4"/><rect x="80" y="120" width="20" height="20" fill="#9aa0a6"/><rect x="100" y="120" width="20" height="20" fill="#5f6368"/><rect x="120" y="120" width="20" height="20" fill="#202124"/><rect x="140" y="120" width="20" height="20" fill="#f1f3f4"/><rect x="160" y="120" width="20" height="20" fill="#9aa0a6"/><rect x="180" y="120" width="20" height="20" fill="#5f6368"/><rect x="0" y="140" width="20" height="20" fill="#5f6368"/><rect x="20" y="140" width="20" height="20" fill="#202124"/><rect x="40" y="140" width="20" height="20" fill="#f1f3f4"/><rect x="60" y="140" width="20" height="20" fill="#9aa0a6"/><rect x="80" y="140" width="20" height="20" fill="#5f6368"/><rect x="100" y="140" width="20" height="20" fill="#202124"/><rect x="120" y="140" width="20" height="20" fill="#f1f3f4"/><rect x="140" y="140" width="20" height="20" fill="#9aa0a6"/><rect x="160" y="140" width="20" height="20" fill="#5f6368"/><rect x="180" y="140" width="20" height="20" fill="#202124"/><rect x="0" y="160" width="20" height="20" fill="#202124"/><rect x="20" y="160" width="20" height="20" fill="#f1f3f4"/><rect x="40" y="160" width="20" height="20" fill="#9aa0a6"/><rect x="60" y="160" width="20" height="20" fill="#5f6368"/><rect x="80" y="160" width="20" height="20" fill="#202124"/><rect x="100" y="160" width="20" height="20" fill="#f1f3f4"/><rect x="120" y="160" width="20" height="20" fill="#9aa0a6"/><rect x="140" y="160" width="20" height="20" fill="#5f6368"/><rect x="160" y="160" width="20" height="20" fill="#202124"/><rect x="180" y="160" width="20" height="20" fill="#f1f3f4"/>
</svg>
